<?xml version="1.0" encoding="utf-8"?>
<!-- Generator: Adobe Illustrator 25.4.1, SVG Export Plug-In . SVG Version: 6.00 Build 0)  -->
<svg version="1.1" id="Lager_1" xmlns="http://www.w3.org/2000/svg" xmlns:xlink="http://www.w3.org/1999/xlink" x="0px" y="0px"
	 viewBox="0 0 595.28 841.89" style="enable-background:new 0 0 595.28 841.89;" xml:space="preserve">
<style type="text/css">
	.st0{stroke:#000000;stroke-miterlimit:10;}
	.st1{fill:none;stroke:#F2F9FC;stroke-miterlimit:10;}
	.st2{stroke:#000000;stroke-width:2;stroke-miterlimit:10;}
	.st3{fill:none;stroke:#000000;stroke-width:2;stroke-miterlimit:10;}
</style>
<line class="st0" x1="-130.3" y1="593.92" x2="-138.55" y2="597.13"/>
<path class="st1" d="M186.14,544.85"/>
<path class="st1" d="M186.14,544.85"/>
<path class="st1" d="M186.14,545.76"/>
<path class="st1" d="M186.14,547.14"/>
<path class="st1" d="M186.14,548.06"/>
<g>
	<path class="st2" d="M492.77,421c0,107.7-87.32,195.13-195.13,195.13S102.51,528.7,102.51,421c0-35.29,9.44-68.44,25.85-96.97
		h32.07l56.32,223.34l58.03-223.34h43.02l58.79,223.34l56.32-223.34h34.01C483.33,352.56,492.77,385.71,492.77,421z"/>
	<path class="st3" d="M466.91,324.02h-34.01l-56.32,223.34l-58.79-223.34h-43.02l-58.03,223.34l-56.32-223.34h-32.07
		c33.58-58.68,96.76-98.26,169.28-98.26S433.34,265.35,466.91,324.02z"/>
</g>
</svg>
